# xmcd
#
# Track frame offsets:
#  150
#  7954
#  17694
#  38519
#  50335
#  52796
#  66732
#  72892
#  88801
#  92561
#  108406
#  112778
#  119718
#  126827
#  130687
#  143816
#
# Disc length: 2190 seconds
#
# Revision: 0
# Processed by: cddbd v1.5PL3 Copyright (c) Steve Scherf et al.
# Submitted via: AltoMP3_Maker 3.0
#
DISCID=d3088c10
DTITLE=Ed Shepp - Bling
DYEAR=1900
DGENRE=
TTITLE0=america the britneyful
TTITLE1=girl of convexitude
TTITLE2=conversation 1.0
TTITLE3=snacklebird
TTITLE4=mylanta dyspeptic explains
TTITLE5=orphanage
TTITLE6=puerto rico
TTITLE7=i secretly don't iron my clothes
TTITLE8=pink pelt
TTITLE9=thanksgiving thoughts
TTITLE10=sewer
TTITLE11=why are you a whore?
TTITLE12=pizza
TTITLE13=my name is bling
TTITLE14=micropenis
TTITLE15=edshepproximation 1.0
EXTD=
EXTT0=
EXTT1=
EXTT2=
EXTT3=
EXTT4=
EXTT5=
EXTT6=
EXTT7=
EXTT8=
EXTT9=
EXTT10=
EXTT11=
EXTT12=
EXTT13=
EXTT14=
EXTT15=
PLAYORDER=
